<?xml version="1.0" standalone="no"?>
<!DOCTYPE svg PUBLIC "-//W3C//DTD SVG 20010904//EN"
 "http://www.w3.org/TR/2001/REC-SVG-20010904/DTD/svg10.dtd">
<svg version="1.0" xmlns="http://www.w3.org/2000/svg"
 width="256.000000pt" height="288.000000pt" viewBox="0 0 256.000000 288.000000"
 preserveAspectRatio="xMidYMid meet">
<metadata>
Created by potrace 1.16, written by Peter Selinger 2001-2019
</metadata>
<g transform="translate(0.000000,288.000000) scale(0.100000,-0.100000)"
fill="#000000" stroke="none">
<path d="M2275 2013 c-137 -80 -470 -273 -740 -428 -269 -154 -520 -299 -557
-320 -77 -45 -77 -47 3 -127 91 -91 240 -140 360 -119 113 20 226 86 280 165
13 20 28 36 33 36 6 0 345 -191 364 -206 9 -6 -66 -105 -127 -167 -112 -116
-248 -196 -406 -238 -112 -30 -298 -30 -410 0 -94 25 -201 74 -282 129 -66 45
-174 154 -222 225 l-33 48 -31 -19 c-18 -10 -132 -76 -255 -146 -122 -71 -222
-132 -222 -136 0 -28 132 -113 611 -390 l544 -315 95 0 95 0 550 318 c303 175
560 330 573 345 13 15 32 44 43 64 18 36 19 63 19 701 0 633 -4 728 -28 727
-4 0 -119 -66 -257 -147z m-235 -477 l0 -45 48 -3 47 -3 3 -47 3 -48 -50 0
-51 0 0 -51 0 -50 -47 3 -48 3 -3 48 -3 47 -45 0 -44 0 0 50 0 50 45 0 45 0 0
45 0 45 50 0 50 0 0 -44z m360 -1 l0 -45 45 0 45 0 0 -50 0 -50 -44 0 -45 0
-3 -47 -3 -48 -47 -3 -48 -3 0 50 0 51 -50 0 -50 0 0 50 0 50 50 0 50 0 0 45
0 45 50 0 50 0 0 -45z"/>
</g>
</svg>
